<?xml version="1.0" encoding="UTF-8"?>
<svg viewBox="0 0 147.43 148.46" xmlns="http://www.w3.org/2000/svg">
<defs>
<style>.cls-1{fill:none;stroke:#6c6c6c;stroke-miterlimit:10;stroke-width:4px;}.cls-2{fill:#6c6c6c;}</style>
</defs>
<rect class="cls-1" x="2" y="2" width="107.06" height="144.46" rx="12" ry="12"/>
<path class="cls-1" transform="translate(-224.76 -347.22)" d="M333.82,371.12h24.37a12,12,0,0,1,12,12V450a12,12,0,0,1-12,12H333.82"/>
<path class="cls-1" transform="translate(-224.76 -347.22)" d="m333.82 381h12.32a12 12 0 0 1 12 12v47.1a12 12 0 0 1 -12 12h-12.32"/>
<rect class="cls-2" x="21.11" y="25.9" width="7.3" height="98.14" rx="3.65" ry="3.65"/>
<rect class="cls-2" x="48.56" y="25.9" width="7.3" height="98.14" rx="3.65" ry="3.65"/>
<rect class="cls-2" x="76.02" y="25.9" width="7.3" height="98.14" rx="3.65" ry="3.65"/>
<path class="cls-1" transform="translate(-224.76 -347.22)" d="m226.76 398.05"/>
<path class="cls-1" transform="translate(-224.76 -347.22)" d="m226.76 481.68s55.57 11 81.32 0 25.74 0 25.74 0"/>
</svg>
