<svg id="Laag_1" data-name="Laag 1" xmlns="http://www.w3.org/2000/svg" viewBox="0 0 152.43 190.12"><defs><style>.cls-1{fill:none;stroke:#f9af06;stroke-miterlimit:10;stroke-width:4px;}.cls-2{fill:#f9af06;}</style></defs><title>vol_biertje_1</title><path class="cls-1" d="M332.74,374.34a11.94,11.94,0,0,1,2.7,7.57V502.37a12,12,0,0,1-12,12H240.38a12,12,0,0,1-12-12V381.91a11.93,11.93,0,0,1,2.14-6.83" transform="translate(-221.38 -326.25)"/><path class="cls-1" d="M335.44,391.81h24.37a12,12,0,0,1,12,12v66.84a12,12,0,0,1-12,12H335.44" transform="translate(-221.38 -326.25)"/><path class="cls-1" d="M335.44,401.67h12.32a12,12,0,0,1,12,12v47.12a12,12,0,0,1-12,12H335.44" transform="translate(-221.38 -326.25)"/><path class="cls-1" d="M337.69,364.36a12.55,12.55,0,0,1-12.51,12.55v15.44a3.66,3.66,0,0,1-3.65,3.65H315a3.66,3.66,0,0,1-3.65-3.65v-6.58h-3.43a3.66,3.66,0,0,1-3.65-3.65v-5.22H237.46a14.08,14.08,0,0,1,0-28.16,13.82,13.82,0,0,1,5.19,1,19.42,19.42,0,0,1-.62-4.88c0-9.18,6.36-16.62,14.19-16.62,7.15,0,13.07,6.19,14.06,14.25a24.14,24.14,0,0,1,9.06-1.69,23.72,23.72,0,0,1,10.24,2.2c1.68-7.8,7.5-13.74,14.64-14.64a14.75,14.75,0,0,1,1.89-.12c9.4,0,17,8.71,17,19.46a21.39,21.39,0,0,1-.44,4.35,12.31,12.31,0,0,1,2.44-.24h0A12.55,12.55,0,0,1,337.69,364.36Z" transform="translate(-221.38 -326.25)"/><rect class="cls-2" x="26.11" y="67.56" width="7.3" height="98.14" rx="3.65" ry="3.65"/><rect class="cls-2" x="53.56" y="67.56" width="7.3" height="98.14" rx="3.65" ry="3.65"/><rect class="cls-2" x="81.01" y="67.56" width="7.3" height="98.14" rx="3.65" ry="3.65"/><path class="cls-1" d="M228.37,418.74" transform="translate(-221.38 -326.25)"/></svg>